<?xml version="1.0" encoding="utf-8"?>
<!-- Generator: Adobe Illustrator 16.0.0, SVG Export Plug-In . SVG Version: 6.00 Build 0)  -->
<!DOCTYPE svg PUBLIC "-//W3C//DTD SVG 1.1//EN" "http://www.w3.org/Graphics/SVG/1.1/DTD/svg11.dtd">
<svg version="1.1" id="Layer_1" xmlns="http://www.w3.org/2000/svg" xmlns:xlink="http://www.w3.org/1999/xlink" x="0px" y="0px"
	 width="1500px" height="1500px" viewBox="0 0 1500 1500" enable-background="new 0 0 1500 1500" xml:space="preserve">
<g>
	<path fill-rule="evenodd" clip-rule="evenodd" fill="#262626" d="M1338.771,732.389c-2.029-11.955-7.609-21.367-19.482-25.912
		c-21.177-8.104-42.225,7.756-42.236,32.039c-0.061,128.631,0.117,257.264-0.083,385.895c-0.14,90.19-69.101,159.257-159.27,159.315
		c-249.677,0.164-499.353,0.164-749.028-0.002c-90.204-0.057-159.243-69.204-159.282-159.281
		c-0.108-249.677-0.076-499.352,0.091-749.028c0.007-10.963,0.837-22.143,3.057-32.854c15.607-75.328,78.816-126.39,156.118-126.432
		c130.011-0.071,260.022,0.004,390.032-0.051c19.635-0.008,34.224-13.502,34.142-31.148c-0.083-17.299-14.49-30.85-33.361-30.857
		c-132.424-0.047-264.852-0.395-397.271,0.437c-20.032,0.126-40.668,3.704-59.932,9.39
		c-91.997,27.143-154.481,110.771-154.845,206.886c-0.477,126.218-0.116,252.435-0.129,378.653
		c-0.012,125.183-0.178,250.365,0.036,375.546c0.209,123.056,96.678,220.531,219.521,220.741
		c250.71,0.427,501.42,0.291,752.13-0.189c19.081-0.036,38.692-2.593,57.139-7.461c96.235-25.399,162.457-111.021,162.843-210.504
		c0.501-129.317,0.136-258.638,0.127-387.957C1339.086,737.202,1339.171,734.747,1338.771,732.389z"/>
	<path fill-rule="evenodd" clip-rule="evenodd" fill="#262626" d="M499.157,873.27c-16.612,47.039-32.246,94.427-47.846,141.817
		c-11.713,35.582-22.851,71.353-34.952,109.254c27.143-8.676,52.093-16.415,76.887-24.624
		c57.814-19.145,115.634-38.278,173.235-58.049c8.846-3.035,18.009-7.959,24.553-14.486
		c211.622-211.104,422.988-422.462,634.25-633.926c38.242-38.275,37.852-96.684-0.271-135.338
		c-13.073-13.254-26.253-26.406-39.479-39.51c-40.938-40.564-96.251-40.58-136.965-0.123
		c-210.816,209.48-421.687,418.91-632.267,628.63C509.006,854.185,502.561,863.626,499.157,873.27z M1195.335,256.842
		c12.599-12.963,30.351-11.389,43.252,1.486c13.176,13.152,26.351,26.309,39.448,39.541c13.907,14.055,16.668,33.23,3.275,47.326
		c-28.186,29.658-58.078,57.701-86.525,85.674c-28.931-28.836-58.121-57.929-83.98-83.705
		C1138.722,317.199,1166.503,286.508,1195.335,256.842z M562.886,889.081c163.697-163.974,327.559-327.784,491.411-491.606
		c2.174-2.173,4.462-4.229,6.771-6.404c29.688,29.752,58.62,58.75,88.415,88.608c-1.688,1.816-4.081,4.565-6.651,7.136
		c-163.333,163.357-326.654,326.728-490.15,489.922c-4.436,4.428-10.321,8.209-16.234,10.218
		c-40.063,13.621-80.315,26.684-121.859,40.371c0.545-3.593,0.581-5.864,1.249-7.93c12.37-38.314,24.645-76.661,37.431-114.836
		C555.155,898.932,558.686,893.289,562.886,889.081z"/>
</g>
</svg>
